<?xml version="1.0" encoding="UTF-8"?>
<svg version="1.1" xmlns="http://www.w3.org/2000/svg" width="800" height="375">
<path d="M0 0 C2.06041226 0.00367005 4.1208415 0.00160257 6.1812439 -0.00575256 C11.75847934 -0.00947488 17.33206227 0.06681253 22.90845037 0.15770888 C28.74187269 0.23911363 34.57538382 0.24662289 40.4092865 0.26203918 C51.4489494 0.30240574 62.48693379 0.40902854 73.52585834 0.53958255 C86.09632776 0.68501447 98.66687841 0.75639682 111.23798001 0.82162321 C137.09049125 0.95741731 162.94151379 1.18599736 188.79272461 1.47583008 C187.83849381 2.59434625 186.88351495 3.71222427 185.92822266 4.82983398 C185.39649948 5.45242096 184.86477631 6.07500793 184.31694031 6.71646118 C178.62808302 13.28298492 172.22671776 18.89438232 165.45288086 24.30786133 C163.1221214 26.20737895 160.92682871 28.17537968 158.73022461 30.22583008 C133.65046261 52.63279328 101.31437906 69.31845419 68.29272461 75.78833008 C67.43259766 75.9573584 66.5724707 76.12638672 65.6862793 76.30053711 C61.16374625 77.11121172 56.8589209 77.55005119 52.26147461 77.52661133 C42.97878229 77.33089601 42.97878229 77.33089601 34.79174805 81.06176758 C30.90519407 85.28419659 28.02579127 90.09865303 25.1940918 95.06713867 C23.0971555 98.67138492 20.70063245 102.0084518 18.29272461 105.41333008 C15.57022461 109.40426758 15.57022461 109.40426758 12.79272461 113.47583008 C8.50272461 119.74583008 4.21272461 126.01583008 -0.20727539 132.47583008 C24.87272461 132.47583008 49.95272461 132.47583008 75.79272461 132.47583008 C71.29518909 140.34651723 71.29518909 140.34651723 69.26928711 143.17504883 C68.81312012 143.81611572 68.35695313 144.45718262 67.88696289 145.11767578 C67.15968994 146.13027466 67.15968994 146.13027466 66.41772461 147.16333008 C65.34438021 148.67083813 64.27148182 150.17866381 63.19897461 151.68676758 C62.64081055 152.47019531 62.08264648 153.25362305 61.50756836 154.06079102 C58.62368083 158.12221121 55.77121383 162.20552253 52.91772461 166.28833008 C51.73543497 167.97843566 50.55314329 169.66853982 49.37084961 171.35864258 C48.1780985 173.06434184 46.98539027 174.77007107 45.79272461 176.47583008 C43.41815122 179.87196203 41.04307511 183.26774163 38.66772461 186.66333008 C37.898396 187.76414917 37.898396 187.76414917 37.11352539 188.88720703 C36.01573078 190.45647946 34.88061049 192.00002586 33.71777344 193.52172852 C32.07825795 196.03766224 31.12620596 198.09611894 30.06103516 200.85961914 C27.64402664 206.29724369 25.10380489 210.51861007 19.79272461 213.47583008 C6.36246089 216.31577401 -8.25801123 214.4622533 -21.85626221 213.69854736 C-42.08389333 211.4583919 -42.08389333 211.4583919 -61.05038452 216.20840454 C-65.47565034 220.51395662 -68.0069067 225.50440358 -70.26327515 231.19470215 C-71.47297789 234.11788647 -73.13708918 236.4924271 -75.04711914 239.00317383 C-75.56467773 239.74116211 -76.08223633 240.47915039 -76.61547852 241.23950195 C-77.12014648 241.95686523 -77.62481445 242.67422852 -78.14477539 243.41333008 C-79.32058556 245.08909103 -80.49636593 246.76487291 -81.67211914 248.44067383 C-82.25590332 249.27195801 -82.8396875 250.10324219 -83.44116211 250.9597168 C-86.3674941 255.12874879 -89.28700264 259.30255278 -92.20727539 263.47583008 C-93.35960849 265.12167087 -94.51195228 266.76750417 -95.66430664 268.41333008 C-98.1427122 271.95371126 -100.61891146 275.49562514 -103.09399414 279.03833008 C-103.73014648 279.9484082 -104.36629883 280.85848633 -105.02172852 281.79614258 C-106.24103197 283.54054752 -107.45980945 285.28532027 -108.67797852 287.03051758 C-109.22776367 287.8168457 -109.77754883 288.60317383 -110.34399414 289.41333008 C-110.82570068 290.10297852 -111.30740723 290.79262695 -111.80371094 291.50317383 C-112.26688721 292.15415039 -112.73006348 292.80512695 -113.20727539 293.47583008 C-113.85284126 294.51197763 -113.85284126 294.51197763 -114.51144886 295.56905746 C-116.20727539 297.47583008 -116.20727539 297.47583008 -118.29432964 297.96802139 C-119.10274209 297.96433422 -119.91115454 297.96064705 -120.74406433 297.95684814 C-122.13858574 297.96509613 -122.13858574 297.96509613 -123.5612793 297.97351074 C-125.08797241 297.95193909 -125.08797241 297.95193909 -126.64550781 297.92993164 C-127.71883865 297.93051575 -128.79216949 297.93109985 -129.89802551 297.93170166 C-133.4532583 297.92891023 -137.00765744 297.89776702 -140.56274414 297.86645508 C-143.02467897 297.85899649 -145.48661974 297.85330176 -147.94856262 297.8493042 C-154.43423806 297.83401797 -160.91955623 297.79470987 -167.40509033 297.75048828 C-174.02074348 297.70960031 -180.63645424 297.691307 -187.25219727 297.67114258 C-200.23737589 297.62821896 -213.22230666 297.56069797 -226.20727539 297.47583008 C-224.84837949 294.7107006 -223.40607954 292.17285857 -221.66040039 289.63208008 C-221.15259033 288.89094971 -220.64478027 288.14981934 -220.12158203 287.38623047 C-219.57236084 286.59079834 -219.02313965 285.79536621 -218.45727539 284.97583008 C-217.59380493 283.71984009 -217.59380493 283.71984009 -216.71289062 282.43847656 C-210.84782766 273.92268099 -204.9158807 265.45380269 -198.97338867 256.99194336 C-196.04705675 252.82291146 -193.1274944 248.64914488 -190.20727539 244.47583008 C-189.0406415 242.80914047 -187.87397482 241.14247381 -186.70727539 239.47583008 C-186.12977539 238.65083008 -185.55227539 237.82583008 -184.95727539 236.97583008 C-53.70727539 49.47583008 -53.70727539 49.47583008 -51.95605469 46.97412109 C-50.79341331 45.31318165 -49.63081541 43.65221176 -48.46826172 41.99121094 C-45.49037025 37.73666279 -42.51164557 33.48270183 -39.53149414 29.22973633 C-38.92241211 28.36026367 -38.31333008 27.49079102 -37.68579102 26.5949707 C-36.54545559 24.96716364 -35.40485915 23.33953937 -34.26391602 21.7121582 C-33.7334668 20.95483398 -33.20301758 20.19750977 -32.65649414 19.41723633 C-31.85989836 18.3310339 -31.85989836 18.3310339 -31.04720974 17.22288799 C-29.11079271 14.46685218 -29.11079271 14.46685218 -27.61209965 11.20140553 C-21.02133081 -1.01244958 -12.91360682 -0.32182455 0 0 Z " fill="#000000" transform="translate(280.207275390625,-1.475830078125)"/>
<path d="M0 0 C1.66164905 0.05218838 1.66164905 0.05218838 3.35686678 0.10543108 C6.7618283 0.21914175 10.16187451 0.38490439 13.56459045 0.55163574 C15.49686107 0.61518341 17.42930208 0.67380958 19.36189461 0.72666931 C25.10974725 0.89156212 30.85317344 1.13177889 36.59803772 1.37780762 C38.76916738 1.46691617 40.94031572 1.55557062 43.11148071 1.64381409 C48.91579622 1.88097405 54.71983486 2.12435712 60.52383924 2.36899757 C66.62279506 2.6249636 72.72199366 2.87501259 78.82116699 3.12573242 C90.33069688 3.59973524 101.84000404 4.07893544 113.34923738 4.5600791 C126.46910854 5.1082963 139.58922199 5.65060362 152.70935738 6.19245434 C179.66137324 7.30568082 206.61308186 8.42619963 233.56459045 9.55163574 C233.56459045 10.21163574 233.56459045 10.87163574 233.56459045 11.55163574 C228.81998945 12.45212308 224.13284465 12.80612695 219.31758118 13.00683594 C218.09540913 13.06218718 218.09540913 13.06218718 216.84854674 13.11865664 C214.12675805 13.24105185 211.40477063 13.35824404 208.68275452 13.47546387 C206.72766209 13.56233633 204.77258428 13.64953847 202.81752014 13.73704529 C198.61066288 13.92465738 194.40371349 14.10998834 190.19667816 14.29356384 C183.53950032 14.58411746 176.88256817 14.88004882 170.22566223 15.17675781 C157.29046529 15.75256881 144.35503435 16.32301127 131.41957092 16.89279938 C114.96891893 17.61761933 98.51836126 18.34453113 82.06804442 19.07692099 C75.45588868 19.37111836 68.84361696 19.66250669 62.2312398 19.95168304 C58.10948147 20.13247182 53.98782682 20.315545 49.86619568 20.49920845 C47.96116632 20.58362232 46.05609464 20.66708724 44.15097809 20.74950981 C41.54037574 20.86258224 38.9299485 20.9791104 36.3195343 21.09643555 C35.57456578 21.12785912 34.82959725 21.15928269 34.06205392 21.1916585 C28.51772806 21.44616861 23.11090882 21.99700391 17.56459045 22.55163574 C117.55459045 26.51163574 117.55459045 26.51163574 219.56459045 30.55163574 C219.56459045 31.21163574 219.56459045 31.87163574 219.56459045 32.55163574 C214.05305649 33.3009906 208.61225674 33.7741112 203.05688477 34.00683594 C202.23827786 34.04373677 201.41967095 34.0806376 200.57625777 34.11865664 C197.85366272 34.24062685 195.13089089 34.35803902 192.40809631 34.47546387 C190.44784296 34.56237235 188.48760258 34.64957378 186.52737427 34.73704529 C182.31616863 34.92437863 178.10488223 35.109733 173.89352226 35.29356384 C167.23282098 35.58441003 160.57234508 35.88020536 153.91189575 36.17675781 C138.57327625 36.85895718 123.23438416 37.53494297 107.89546967 38.21047211 C93.83166882 38.82985559 79.76793103 39.45057586 65.70443827 40.07692099 C59.08477462 40.37154887 52.46497647 40.66287629 45.84505641 40.95168304 C41.72670292 41.13203983 37.60847937 41.31523785 33.49028587 41.49920845 C31.58239235 41.5838541 29.67444603 41.66731945 27.76644516 41.74950981 C25.15924901 41.86198159 22.55227529 41.97869556 19.9453125 42.09643555 C19.19296969 42.12785912 18.44062688 42.15928269 17.6654858 42.1916585 C13.20480673 42.39851533 9.01698908 42.9155788 4.56459045 43.55163574 C70.56459045 46.19163574 136.56459045 48.83163574 204.56459045 51.55163574 C204.56459045 52.21163574 204.56459045 52.87163574 204.56459045 53.55163574 C198.72765538 54.24508871 192.94184129 54.75530633 187.07070923 55.00683594 C186.26561525 55.04373677 185.46052127 55.0806376 184.6310305 55.11865664 C181.95999477 55.24038409 179.28879196 55.35792324 176.61756897 55.47546387 C174.6915928 55.56239626 172.76562873 55.64959719 170.8396759 55.73704529 C166.70488322 55.92424282 162.57001413 56.10961264 158.43507576 56.29356384 C151.89110097 56.58475937 145.347333 56.88043032 138.80358887 57.17675781 C126.09206995 57.75180416 113.38036574 58.32268321 100.66862488 58.89279938 C84.49194707 59.61831673 68.31530595 60.34459882 52.13893455 61.07692099 C45.63967228 61.37098618 39.14029734 61.66237661 32.64082158 61.95168304 C28.59117361 62.13248243 24.54163027 62.31554675 20.49211121 62.49920845 C18.62094313 62.58360754 16.74973262 62.66707235 14.8784771 62.74950981 C12.31401492 62.86261525 9.7497284 62.97913146 7.18545532 63.09643555 C6.454206 63.12785912 5.72295668 63.15928269 4.96954829 63.1916585 C-0.54269213 63.44913833 -5.92115952 64.00021074 -11.43540955 64.55163574 C54.89459045 67.19163574 121.22459045 69.83163574 189.56459045 72.55163574 C189.56459045 73.21163574 189.56459045 73.87163574 189.56459045 74.55163574 C184.43829643 75.36384592 179.37073132 75.79019298 174.18386841 76.00683594 C173.36682149 76.04373677 172.54977457 76.0806376 171.70796865 76.11865664 C168.98460975 76.24083901 166.2610631 76.35814139 163.53749084 76.47546387 C161.57900669 76.56235402 159.62053633 76.64955581 157.66207886 76.73704529 C153.45140918 76.92451543 149.24065316 77.10985804 145.02981758 77.29356384 C138.36891425 77.5842451 131.70824747 77.8801132 125.04760742 78.17675781 C110.90761335 78.80576965 96.76736188 79.42889511 82.62709045 80.05163574 C67.36433431 80.72393031 52.10163214 81.39737036 36.8391971 82.07692099 C30.22064294 82.37141661 23.60196 82.66276461 16.98316014 82.95168304 C12.86257908 83.13218493 8.7421191 83.31534189 4.62168694 83.49920845 C2.71421089 83.58377703 0.80668557 83.66724253 -1.10089111 83.74950981 C-3.70997022 83.86218117 -6.31884297 83.97883437 -8.92770386 84.09643555 C-9.67781595 84.12785912 -10.42792804 84.15928269 -11.2007708 84.1916585 C-11.90906141 84.22438341 -12.61735202 84.25710832 -13.34710598 84.29082489 C-13.94782624 84.31724296 -14.54854649 84.34366103 -15.1674704 84.37087965 C-18.6017821 84.64459632 -22.01681169 85.12431101 -25.43540955 85.55163574 C40.89459045 88.19163574 107.22459045 90.83163574 175.56459045 93.55163574 C175.56459045 94.21163574 175.56459045 94.87163574 175.56459045 95.55163574 C169.7126285 96.24736359 163.91237512 96.75621653 158.02601624 97.00683594 C156.81119159 97.06218718 156.81119159 97.06218718 155.57182503 97.11865664 C152.88463549 97.24039447 150.19727929 97.35792776 147.50990295 97.47546387 C145.57245217 97.56239461 143.63501349 97.64959557 141.69758606 97.73704529 C137.53823588 97.9242441 133.37880964 98.10961275 129.21931458 98.29356384 C122.63780745 98.5847099 116.05650898 98.88039496 109.47523499 99.17675781 C94.31784931 99.85862344 79.16020084 100.53457152 64.00254822 101.21047211 C50.10621527 101.83018986 36.20994151 102.45116423 22.31387901 103.07692099 C15.7758763 103.37116436 9.23775383 103.66253388 2.69952393 103.95168304 C-1.3719334 104.13233177 -5.44327739 104.31544127 -9.51459503 104.49920845 C-11.39746761 104.58369035 -13.28038613 104.66715566 -15.16335297 104.74950981 C-17.7413123 104.86240108 -20.31908026 104.97898489 -22.89683533 105.09643555 C-23.63488844 105.12785912 -24.37294155 105.15928269 -25.13335991 105.1916585 C-30.29100983 105.43206312 -35.2764113 105.97841372 -40.43540955 106.55163574 C25.89459045 109.19163574 92.22459045 111.83163574 160.56459045 114.55163574 C160.56459045 115.21163574 160.56459045 115.87163574 160.56459045 116.55163574 C155.06804596 117.29835122 149.64170897 117.77332607 144.10157776 118.00683594 C143.28775997 118.04373677 142.47394217 118.0806376 141.63546324 118.11865664 C138.92902211 118.24061796 136.22240362 118.35803522 133.51576233 118.47546387 C131.56698358 118.56237385 129.6182178 118.64957524 127.66946411 118.73704529 C123.48281603 118.92437815 119.29608677 119.10973359 115.10928345 119.29356384 C108.48611431 119.58445712 101.86316899 119.88023927 95.24024963 120.17675781 C79.98672852 120.85893695 64.73292568 121.53472865 49.47911835 122.21047211 C35.49579232 122.82999918 21.51252984 123.45087841 7.52949381 124.07692099 C0.94857099 124.37137469 -5.6324797 124.66272334 -12.21364594 124.95168304 C-16.31019036 125.13218674 -20.40661318 125.31534128 -24.50300789 125.49920845 C-26.39919676 125.58377307 -28.29543502 125.66723857 -30.19172478 125.74950981 C-32.78542407 125.86218961 -35.37891646 125.97883972 -37.97239685 126.09643555 C-38.71793587 126.12785912 -39.46347489 126.15928269 -40.23160601 126.1916585 C-40.93579652 126.22438341 -41.63998704 126.25710832 -42.36551666 126.29082489 C-42.96265708 126.31724296 -43.55979751 126.34366103 -44.17503309 126.37087965 C-47.60677574 126.64530668 -51.01929674 127.12462164 -54.43540955 127.55163574 C11.56459045 130.19163574 77.56459045 132.83163574 145.56459045 135.55163574 C145.56459045 136.21163574 145.56459045 136.87163574 145.56459045 137.55163574 C140.07030311 138.29795415 134.64614325 138.77320904 129.10830688 139.00683594 C128.29519466 139.04373677 127.48208243 139.0806376 126.64433044 139.11865664 C123.94022339 139.24061766 121.23593886 139.35803556 118.53163147 139.47546387 C116.58447526 139.56237456 114.637332 139.64957594 112.69020081 139.73704529 C108.50682917 139.92438285 104.32337615 140.10973886 100.13984871 140.29356384 C93.52060715 140.58449475 86.90158732 140.88026735 80.28259277 141.17675781 C66.23092598 141.80549625 52.17901722 142.42873927 38.12709045 143.05163574 C22.95913738 143.72412391 7.79123539 144.39769567 -7.3764177 145.07692099 C-13.95205163 145.37120768 -20.52780636 145.66257655 -27.10367 145.95168304 C-31.19916403 146.1323291 -35.29454515 146.3154413 -39.38990021 146.49920845 C-41.28405992 146.58369482 -43.1782655 146.66716015 -45.0725193 146.74950981 C-47.66585858 146.8623913 -50.25900682 146.97897867 -52.85214233 147.09643555 C-53.9660816 147.14357091 -53.9660816 147.14357091 -55.1025247 147.1916585 C-60.27089046 147.4311639 -65.26577878 147.97723232 -70.43540955 148.55163574 C29.55459045 152.51163574 29.55459045 152.51163574 131.56459045 156.55163574 C131.23459045 157.21163574 130.90459045 157.87163574 130.56459045 158.55163574 C125.08539528 159.47738715 119.60274694 159.77450958 114.05688477 160.00683594 C113.23827786 160.04373677 112.41967095 160.0806376 111.57625777 160.11865664 C108.85366272 160.24062685 106.13089089 160.35803902 103.40809631 160.47546387 C101.44784296 160.56237235 99.48760258 160.64957378 97.52737427 160.73704529 C93.31616863 160.92437863 89.10488223 161.109733 84.89352226 161.29356384 C78.23282098 161.58441003 71.57234508 161.88020536 64.91189575 162.17675781 C49.57327625 162.85895718 34.23438416 163.53494297 18.89546967 164.21047211 C4.83166882 164.82985559 -9.23206897 165.45057586 -23.29556173 166.07692099 C-29.91522538 166.37154887 -36.53502353 166.66287629 -43.15494359 166.95168304 C-47.27329708 167.13203983 -51.39152063 167.31523785 -55.50971413 167.49920845 C-57.41760765 167.5838541 -59.32555397 167.66731945 -61.23355484 167.74950981 C-63.84075099 167.86198159 -66.44772471 167.97869556 -69.0546875 168.09643555 C-70.18320172 168.14357091 -70.18320172 168.14357091 -71.3345142 168.1916585 C-75.76661985 168.39719028 -80.0600019 168.85839603 -84.43540955 169.55163574 C-82.89978583 169.61071515 -82.89978583 169.61071515 -81.33313942 169.67098808 C-56.45495143 170.62855447 -31.57720922 171.59709268 -6.69989967 172.57722282 C5.33045056 173.05094528 17.36092165 173.52106525 29.39173889 173.98278809 C39.87439876 174.38510426 50.35677298 174.79409449 60.83885539 175.21119511 C66.39210767 175.43193288 71.9454473 175.64926272 77.49914169 175.85860825 C82.72127389 176.05556102 87.94297838 176.26140277 93.16448784 176.47420883 C95.08568462 176.55091267 97.00701671 176.62430623 98.92847252 176.6942215 C101.54251377 176.78982261 104.15581697 176.8970885 106.76927185 177.00741577 C107.53774488 177.03271767 108.30621791 177.05801958 109.097978 177.08408821 C114.33634803 177.32339332 114.33634803 177.32339332 116.56459045 179.55163574 C111.77385345 180.46411138 107.03927063 180.80795725 102.17677307 181.00683594 C101.34691879 181.04373677 100.5170645 181.0806376 99.66206312 181.11865664 C96.88947802 181.24107058 94.11669681 181.35825105 91.34388733 181.47546387 C89.35274862 181.5623319 87.36162446 181.64953411 85.37051392 181.73704529 C81.08670716 181.92464919 76.80281011 182.10997693 72.51882935 182.29356384 C65.74512824 182.58394807 58.97167858 182.8799244 52.19825745 183.17675781 C36.59765253 183.8595708 20.9967315 184.53504568 5.39580536 185.21047211 C-8.90333233 185.82961445 -23.20239851 186.45030039 -37.50121069 187.07692099 C-44.23487844 187.37179999 -50.9686885 187.66310486 -57.70262909 187.95168304 C-61.89086452 188.13189448 -66.07896325 188.31513895 -70.26703072 188.49920845 C-72.20920348 188.58394023 -74.15143198 188.66740509 -76.09371758 188.74950981 C-78.74516963 188.86176474 -81.39638556 188.9785453 -84.04759216 189.09643555 C-85.20003127 189.14357091 -85.20003127 189.14357091 -86.37575197 189.1916585 C-90.51496797 189.38100729 -94.31790714 189.86538534 -98.43540955 190.55163574 C-32.43540955 193.19163574 33.56459045 195.83163574 101.56459045 198.55163574 C101.56459045 199.21163574 101.56459045 199.87163574 101.56459045 200.55163574 C95.95827023 201.45743733 90.42082299 201.83798998 84.75038147 202.0894928 C83.77901497 202.1352663 82.80764847 202.1810398 81.80684662 202.22820038 C78.56087082 202.38032362 75.31469461 202.52762504 72.0684967 202.67492676 C69.73713907 202.78316705 67.40579477 202.89169481 65.07446289 203.00048828 C58.74570326 203.29491405 52.41675397 203.58505737 46.0877533 203.8742497 C40.12768591 204.14706118 34.16774388 204.42258133 28.20779252 204.69791292 C15.67422993 205.27676837 3.14047955 205.85147108 -9.39333892 206.42475574 C-20.12121842 206.91553605 -30.84892864 207.40988398 -41.57652283 207.90686035 C-54.05419168 208.48491076 -66.53196189 209.06069303 -79.00989819 209.63294357 C-85.60719628 209.93553317 -92.20444783 210.23907163 -98.80158997 210.54504585 C-105.01322077 210.83299143 -111.22499897 211.11752561 -117.436903 211.39951324 C-119.70759411 211.50313477 -121.97823303 211.60790811 -124.24881172 211.71396446 C-135.98658012 212.26148921 -147.68318957 212.71897301 -159.43540955 212.55163574 C-156.60118064 207.40877438 -153.48396236 202.63082718 -150.06040955 197.86413574 C-148.98706515 196.3566277 -147.91416676 194.84880201 -146.84165955 193.34069824 C-146.28349548 192.55727051 -145.72533142 191.77384277 -145.1502533 190.9666748 C-142.26636593 186.90525484 -139.41387269 182.82196126 -136.56040955 178.73913574 C-135.37552686 177.04511613 -134.19063094 175.35110578 -133.00572205 173.65710449 C-132.41565369 172.81325195 -131.82558533 171.96939941 -131.21763611 171.09997559 C-128.29164222 166.91620514 -125.36342644 162.73399051 -122.43540955 158.55163574 C-121.26873195 156.88497672 -120.10206529 155.21831005 -118.93540955 153.55163574 C-80.43540955 98.55163574 -80.43540955 98.55163574 -41.93540955 43.55163574 C-41.35726501 42.72566895 -40.77912048 41.89970215 -40.18345642 41.04870605 C-39.02347514 39.39168251 -37.86332051 37.73478031 -36.70298767 36.07800293 C-33.68255974 31.76480467 -30.66569163 27.44917586 -27.65415955 23.12976074 C-26.72023376 21.79171387 -26.72023376 21.79171387 -25.7674408 20.42663574 C-24.58662206 18.73471636 -23.40685355 17.04206328 -22.2283783 15.34851074 C-21.68826111 14.57507324 -21.14814392 13.80163574 -20.59165955 13.00476074 C-20.12566345 12.33605957 -19.65966736 11.6673584 -19.17955017 10.97839355 C-18.60398376 10.17756348 -18.02841736 9.3767334 -17.43540955 8.55163574 C-17.07874551 7.90232952 -16.72208147 7.25302329 -16.35460943 6.58404112 C-12.02951149 -0.49419568 -7.86489026 -0.47737455 0 0 Z " fill="#ED1E23" transform="translate(566.4354095458984,-0.5516357421875)"/>
<path d="M0 0 C0.95447273 0.11261642 1.90894547 0.22523283 2.89234161 0.34126186 C3.92816628 0.42391009 4.96399094 0.50655832 6.03120422 0.59171104 C8.30608155 0.77347739 10.57957947 0.97316857 12.85153961 1.18834972 C18.5604513 1.70026262 24.28020874 2.00127296 30.00197887 2.33173859 C33.51580423 2.53966958 37.02818758 2.76932723 40.54065704 2.9988699 C41.26253472 3.04593899 41.98441239 3.09300808 42.72816515 3.14150351 C44.21206624 3.23830482 45.69596228 3.33518344 47.17985344 3.43213677 C51.03933159 3.68370314 54.89901478 3.93208592 58.75867462 4.18084621 C66.02537449 4.64966019 73.29189309 5.12122293 80.55834627 5.5938434 C88.84880923 6.13292725 97.13947629 6.66884004 105.43015957 7.20452321 C122.44577335 8.30401683 139.4611344 9.40737334 156.47632599 10.513381 C156.47632599 11.173381 156.47632599 11.833381 156.47632599 12.513381 C153.43654569 13.5266411 151.02723927 13.77116744 147.8385849 13.97531033 C146.66489349 14.05241238 145.49120209 14.12951443 144.28194427 14.2089529 C142.99297745 14.28951427 141.70401062 14.37007565 140.37598419 14.45307827 C139.00607867 14.54154992 137.63619593 14.63037489 136.26633453 14.71952724 C132.54578064 14.96065789 128.82492675 15.19683428 125.10400033 15.43213677 C121.21605822 15.67884193 117.32840929 15.93008234 113.44072723 16.18084621 C106.07805112 16.65506046 98.71511964 17.12518277 91.35208815 17.5938434 C82.96987067 18.12757516 74.58794728 18.66585598 66.20604575 19.20452321 C48.96312854 20.31254563 31.71984988 21.41484142 14.47632599 22.513381 C17.51667456 23.3699408 20.38757611 23.72666284 23.53751373 23.92388821 C24.55823471 23.98968578 25.57895569 24.05548336 26.6306076 24.1232748 C27.74452377 24.19134335 28.85843994 24.25941189 30.00611115 24.32954311 C31.1836647 24.40450512 32.36121826 24.47946712 33.57445526 24.55670071 C36.79931406 24.76160269 40.02435359 24.96336835 43.24945879 25.16434455 C46.62401547 25.37589814 49.99820792 25.5930811 53.37241364 25.81014919 C64.86386983 26.54847485 76.3557733 27.27952278 87.8483963 27.99946499 C94.1986602 28.39732866 100.54846715 28.80180802 106.89784276 29.21361071 C110.25773591 29.4312068 113.61777688 29.6452066 116.97842026 29.85091877 C120.72131797 30.08146114 124.46332247 30.32331532 128.2053299 30.56782436 C129.32329453 30.63386868 130.44125916 30.69991299 131.5931015 30.76795864 C132.60818283 30.83657604 133.62326416 30.90519344 134.66910553 30.97589016 C135.55436228 31.03174251 136.43961903 31.08759485 137.35170174 31.14513969 C139.47632599 31.513381 139.47632599 31.513381 141.47632599 33.513381 C139.76383514 35.22587185 137.47057561 34.82032714 135.12378693 34.9685812 C133.96270416 35.04423809 132.8016214 35.11989498 131.60535431 35.19784451 C130.32011871 35.27683483 129.03488312 35.35582516 127.71070099 35.43720913 C126.35256098 35.52399074 124.99444788 35.6111944 123.63636017 35.69879055 C120.70577654 35.88695393 117.77502881 36.07221978 114.84412384 36.2553091 C110.2143608 36.54465204 105.58506429 36.84101962 100.95581818 37.13850307 C90.29302375 37.82262356 79.62964434 38.49744199 68.96625519 39.17221737 C59.19602213 39.79056962 49.42592222 40.41085271 39.65629196 41.03866625 C35.04970795 41.33442309 30.44286507 41.62563031 25.83577728 41.91342831 C22.97517649 42.09304106 20.11482963 42.27646607 17.25453949 42.46095371 C15.28565774 42.58676013 13.31647908 42.707892 11.34729767 42.8289175 C10.1862149 42.90457439 9.02513214 42.98023129 7.82886505 43.05818081 C6.81342621 43.12232929 5.79798737 43.18647778 4.75177765 43.25257015 C2.51207724 43.270301 2.51207724 43.270301 1.47632599 44.513381 C2.40481495 44.5738431 2.40481495 44.5738431 3.35206127 44.63552666 C18.41715582 45.61677885 33.48200387 46.60172592 48.54658794 47.59078026 C55.83172516 48.06899127 63.1169401 48.54595382 70.40235138 49.0199728 C76.75269838 49.43315582 83.1028867 49.84868593 89.45289594 50.26702887 C92.81481111 50.48843197 96.17679375 50.70866327 99.53896904 50.92608356 C103.29328242 51.16945468 107.04730077 51.41697308 110.80127716 51.66548061 C111.91474014 51.73669125 113.02820313 51.80790188 114.17540741 51.88127041 C115.20039337 51.94995831 116.22537933 52.0186462 117.28142548 52.08941555 C118.16911212 52.14748851 119.05679876 52.20556147 119.971385 52.26539421 C122.523169 52.51801842 124.97210525 52.96828666 127.47632599 53.513381 C127.14632599 54.173381 126.81632599 54.833381 126.47632599 55.513381 C124.26727962 55.89723969 124.26727962 55.89723969 121.28478241 56.08883572 C120.15905823 56.16586727 119.03333405 56.24289883 117.87349701 56.32226467 C116.62731094 56.39765972 115.38112488 56.47305477 114.0971756 56.55073452 C112.14113403 56.68043636 112.14113403 56.68043636 110.14557648 56.81275845 C106.55688393 57.05056081 102.96752946 57.27652699 99.37795711 57.50059915 C95.62158894 57.73722196 91.86596324 57.98507294 88.11025238 58.2318716 C80.98397003 58.69852249 73.85711771 59.15575906 66.7299915 59.60932058 C56.29327186 60.27383541 45.85733839 60.95049582 35.42154789 61.62943077 C34.65472516 61.67931713 33.88790242 61.72920349 33.09784263 61.78060156 C31.56783059 61.88014892 30.03782055 61.97972698 28.50781256 62.07933658 C24.03860098 62.36995719 19.56918977 62.65722168 15.09957397 62.9415561 C12.98299794 63.07644764 10.86649131 63.21237585 8.75000763 63.34870815 C6.17607725 63.51436416 3.60203308 63.67826587 1.02785492 63.8400259 C-4.85756555 64.22132784 -10.68211515 64.69649245 -16.52367401 65.513381 C-15.91352227 65.55368907 -15.30337053 65.59399714 -14.67472935 65.63552666 C0.19972937 66.61830771 15.07403927 67.60331724 29.94818783 68.59078026 C37.14133362 69.0682644 44.3345272 69.54500554 51.52783966 70.0199728 C57.8005184 70.43415346 64.07310126 70.84975343 70.34557492 71.26702887 C73.66406479 71.48774194 76.98261039 71.70755197 80.30124474 71.92608356 C84.01394707 72.1706856 87.72647471 72.4177957 91.43897247 72.66548061 C92.52870361 72.73669125 93.61843475 72.80790188 94.74118805 72.88127041 C100.67622499 73.28013254 106.5695556 73.80884555 112.47632599 74.513381 C112.14632599 75.173381 111.81632599 75.833381 111.47632599 76.513381 C108.50665325 76.90536275 105.6144885 77.15688141 102.62866974 77.33759975 C101.64672638 77.40459576 100.66478302 77.47159176 99.6530838 77.54061794 C96.2405711 77.77043247 92.8272897 77.98568154 89.41382599 78.200881 C86.95162842 78.36271812 84.4894717 78.52517756 82.02735138 78.68818569 C75.3093697 79.13019448 68.59052141 79.55791459 61.87140751 79.98232365 C54.54288805 80.4452821 47.21466457 80.91279479 39.88648224 81.38105679 C26.01036826 82.26712877 12.13380449 83.14597745 -1.74301529 84.02092266 C-5.58741898 84.26345955 -9.43178338 84.50661276 -13.27614594 84.74980068 C-19.41926387 85.1380032 -25.56257717 85.52296946 -31.70604706 85.90556049 C-34.00305356 86.0490138 -36.30000132 86.19341117 -38.59688568 86.33880711 C-41.77813269 86.53996086 -44.95958152 86.73756414 -48.14110565 86.93427944 C-49.52697923 87.02304867 -49.52697923 87.02304867 -50.94085026 87.11361122 C-56.48016977 87.45144294 -61.97390956 87.56553958 -67.52367401 87.513381 C-64.41853063 81.8408142 -60.88771187 76.59792439 -57.14867401 71.325881 C-55.89078036 69.54078193 -54.63297019 67.75562404 -53.37523651 65.97041225 C-52.73489471 65.06371792 -52.09455292 64.15702358 -51.43480682 63.22285366 C-48.45248066 58.99471674 -45.48854898 54.75376378 -42.52367401 50.513381 C-41.35710579 48.84664543 -40.19043886 47.17997894 -39.02367401 45.513381 C-38.44617401 44.688381 -37.86867401 43.863381 -37.27367401 43.013381 C-34.64867401 39.263381 -34.64867401 39.263381 -32.02367401 35.513381 C-31.44697968 34.68668911 -30.87028534 33.85999722 -30.27611542 33.00825405 C-29.11207612 31.35106297 -27.93729961 29.70135991 -26.75170135 28.05952358 C-23.08281577 22.94346084 -19.91390203 17.77834272 -17.04174042 12.17231655 C-8.88893533 -0.62466445 -8.88893533 -0.62466445 0 0 Z " fill="#ED1E23" transform="translate(496.52367401123047,208.4866189956665)"/>
<path d="M0 0 C0.99 0.66 1.98 1.32 3 2 C3 2.66 3 3.32 3 4 C3.556875 3.71125 4.11375 3.4225 4.6875 3.125 C10.12242049 0.48098462 13.95924291 -0.61431428 20 0 C22.81009519 1.00875212 23.66697708 1.33395417 25 4 C25.65498711 11.73069299 22.52986147 15.30977941 18.13671875 21.31933594 C16.96706726 23.04869179 16.01488791 24.80729801 15.0625 26.6640625 C13.08918189 30.31220128 11.17672209 33.24539029 8 36 C2.42902606 37.52283854 -3.35660144 36.75806846 -9 36 C-7.41419168 31.08114544 -4.52985588 27.42951014 -1.4375 23.375 C-0.43262235 22.05218775 0.56883165 20.72676587 1.56640625 19.3984375 C2.00927979 18.81755371 2.45215332 18.23666992 2.90844727 17.63818359 C4.18849613 15.87265344 4.18849613 15.87265344 5 13 C0.50072689 14.34935037 -1.02327239 15.98011502 -3.34765625 20.0078125 C-3.95416016 20.99394531 -4.56066406 21.98007812 -5.18554688 22.99609375 C-6.43313949 25.07584752 -7.65739409 27.16978678 -8.85742188 29.27734375 C-13.46086845 36.63321755 -13.46086845 36.63321755 -17.99560547 37.71386719 C-22.80984625 37.75663422 -27.30333502 36.9971893 -32 36 C-27.97198947 29.56008044 -23.8381504 23.24731087 -19.3828125 17.09375 C-17.84178865 14.95694818 -17.84178865 14.95694818 -17 12 C-22.84724766 15.25142408 -25.98647781 19.61620754 -29.75 25.0625 C-30.32621094 25.87783203 -30.90242188 26.69316406 -31.49609375 27.53320312 C-33.70349007 30.664207 -35.87495264 33.81242895 -38 37 C-40.7885289 37.22107787 -43.34653181 37.28107535 -46.125 37.1875 C-47.25615234 37.16719727 -47.25615234 37.16719727 -48.41015625 37.14648438 C-50.27374127 37.11109985 -52.13695978 37.05729167 -54 37 C-53.37256438 33.61586785 -52.10529326 31.41549048 -50.12109375 28.62109375 C-49.53287842 27.78682861 -48.94466309 26.95256348 -48.33862305 26.09301758 C-47.71125244 25.21669678 -47.08388184 24.34037598 -46.4375 23.4375 C-45.80432861 22.54377686 -45.17115723 21.65005371 -44.51879883 20.72924805 C-42.68640648 18.14759208 -40.8453222 15.57242492 -39 13 C-38.52884766 12.34225586 -38.05769531 11.68451172 -37.57226562 11.00683594 C-31.38136228 2.38136228 -31.38136228 2.38136228 -30 1 C-27.19972835 0.92630864 -24.42442727 0.90776752 -21.625 0.9375 C-20.84382813 0.94201172 -20.06265625 0.94652344 -19.2578125 0.95117188 C-17.17184896 0.96367337 -15.08591948 0.98155867 -13 1 C-8.52521257 1 -4.61623966 -0.24729855 0 0 Z " fill="#000000" transform="translate(186,337)"/>
<path d="M0 0 C1.57039759 0.10023814 3.14071013 0.20181723 4.7109375 0.3046875 C6.31229964 0.3649573 7.91388003 0.41969697 9.515625 0.46875 C13.41949682 0.60028207 17.31279739 0.80676274 21.2109375 1.0546875 C18.68835083 6.34322599 15.12365235 9.84864011 10.2109375 13.0546875 C6.86179091 14.00367827 3.54751192 14.60199901 0.12109375 15.203125 C-3.13971189 16.15729363 -4.18143325 16.99601975 -6.1015625 19.7421875 C-6.6584375 20.8353125 -7.2153125 21.9284375 -7.7890625 23.0546875 C-3.8290625 23.3846875 0.1309375 23.7146875 4.2109375 24.0546875 C0.02911932 34.50923295 0.02911932 34.50923295 -4.7890625 38.0546875 C-9.90460875 38.83359783 -14.66003451 38.58937382 -19.7890625 38.0546875 C-20.0571875 38.75980469 -20.3253125 39.46492188 -20.6015625 40.19140625 C-22.87469625 45.67235044 -25.03146311 50.33301701 -29.7890625 54.0546875 C-35.67917579 55.43030354 -41.83697176 54.68423556 -47.7890625 54.0546875 C-47.1709083 50.90700429 -46.12380339 48.77173157 -44.3046875 46.140625 C-43.78801514 45.3885376 -43.27134277 44.6364502 -42.73901367 43.86157227 C-42.17802979 43.05905029 -41.6170459 42.25652832 -41.0390625 41.4296875 C-40.46067627 40.59300537 -39.88229004 39.75632324 -39.28637695 38.89428711 C-34.76489969 32.38133047 -30.14856006 25.93717518 -25.45605469 19.54638672 C-24.96137695 18.86979004 -24.46669922 18.19319336 -23.95703125 17.49609375 C-23.43995605 16.81208496 -22.92288086 16.12807617 -22.39013672 15.42333984 C-20.66805131 12.99477342 -20.66805131 12.99477342 -19.23876953 9.87744141 C-14.46846306 0.81399277 -9.63192403 -0.38061445 0 0 Z " fill="#000000" transform="translate(47.7890625,319.9453125)"/>
<path d="M0 0 C2.12591631 0.48530763 3.9779342 0.58119226 6.15527344 0.56469727 C7.28642578 0.55986328 7.28642578 0.55986328 8.44042969 0.55493164 C9.21773438 0.54655273 9.99503906 0.53817383 10.79589844 0.52954102 C11.98505859 0.52277344 11.98505859 0.52277344 13.19824219 0.51586914 C15.14749352 0.50412666 17.09670582 0.48619247 19.04589844 0.46704102 C17.12841296 6.54510818 12.95918025 11.32023896 9.19775391 16.35913086 C6.50066943 19.99721286 3.90379069 23.56805548 1.71386719 27.53735352 C-0.20269245 30.93558897 -2.01090131 33.83317247 -4.95410156 36.46704102 C-10.19870185 37.57721188 -14.63335792 37.19175232 -19.95410156 36.46704102 C-22.10044682 36.46704102 -24.24881936 36.48404397 -26.39160156 36.60766602 C-33.24382119 36.9001388 -33.24382119 36.9001388 -36.51660156 34.90454102 C-38.94006626 30.79518783 -39.41167941 27.58213862 -38.39550781 22.88500977 C-35.3105938 13.08183856 -29.92542526 6.71834657 -20.82910156 1.96704102 C-13.67408148 -1.44914895 -7.70361891 -2.10107447 0 0 Z M-19.95410156 16.46704102 C-22.10604526 19.69495656 -22.15496599 20.75104911 -21.95410156 24.46704102 C-20.96410156 24.79704102 -19.97410156 25.12704102 -18.95410156 25.46704102 C-13.74626828 22.63669684 -9.22238082 18.81892191 -7.07910156 13.15454102 C-7.03785156 12.59766602 -6.99660156 12.04079102 -6.95410156 11.46704102 C-7.97892753 10.25888486 -7.97892753 10.25888486 -10.07910156 10.02954102 C-14.42072505 10.69022285 -16.96273138 13.37018171 -19.95410156 16.46704102 Z " fill="#000000" transform="translate(324.9541015625,337.532958984375)"/>
<path d="M0 0 C1.39456452 0.00667256 2.78911118 0.01863093 4.18359375 0.03515625 C5.2499707 0.04192383 5.2499707 0.04192383 6.33789062 0.04882812 C8.09899388 0.06064761 9.86005411 0.07858362 11.62109375 0.09765625 C10.98891228 3.78315111 9.38001944 6.17286067 7.234375 9.203125 C6.19700195 10.67942383 6.19700195 10.67942383 5.13867188 12.18554688 C4.41099609 13.20841797 3.68332031 14.23128906 2.93359375 15.28515625 C1.51220242 17.29890174 0.09161814 19.31321715 -1.328125 21.328125 C-2.01181152 22.29669434 -2.69549805 23.26526367 -3.39990234 24.26318359 C-6.12445781 28.16548917 -8.76634214 32.119732 -11.37890625 36.09765625 C-8.40890625 36.09765625 -5.43890625 36.09765625 -2.37890625 36.09765625 C-6.44110471 46.65047777 -6.44110471 46.65047777 -11.37890625 50.09765625 C-17.51071879 51.61759183 -24.06662091 50.93994486 -30.31640625 50.66015625 C-32.06695464 50.6149714 -33.81761474 50.57391378 -35.56835938 50.53710938 C-39.8413139 50.43832334 -44.10887863 50.28328203 -48.37890625 50.09765625 C-47.11823113 44.57368698 -44.44481826 40.0676393 -40.37890625 36.09765625 C-38.0078125 35.68359375 -38.0078125 35.68359375 -35.50390625 35.78515625 C-32.91863647 35.95655907 -32.91863647 35.95655907 -30.37890625 35.09765625 C-26.76528763 31.09915518 -24.06164579 26.75681018 -21.37890625 22.09765625 C-24.67890625 21.76765625 -27.97890625 21.43765625 -31.37890625 21.09765625 C-26.35667984 11.00178132 -26.35667984 11.00178132 -21.78125 8.91015625 C-19.92124328 8.49158934 -18.05183968 8.11289006 -16.17578125 7.7734375 C-10.01705649 6.28536574 -6.06807121 0.17537778 0 0 Z " fill="#000000" transform="translate(397.37890625,323.90234375)"/>
<path d="M0 0 C1.58206057 0.00667536 3.16410534 0.0186375 4.74609375 0.03515625 C5.55240234 0.03966797 6.35871094 0.04417969 7.18945312 0.04882812 C9.18753131 0.06065107 11.18557158 0.07858711 13.18359375 0.09765625 C9.82474535 6.78159578 5.66158981 12.61757521 1.07421875 18.49609375 C-0.95675013 21.01551566 -0.95675013 21.01551566 -1.81640625 24.09765625 C3.97508622 22.78577121 6.15990816 18.43190361 9.24609375 13.78515625 C10.77057216 11.54126106 12.29809121 9.30026134 13.84326172 7.07055664 C14.95109882 5.43987694 15.98936926 3.76217393 17.0078125 2.07421875 C19.88796374 -0.54222026 21.78796861 -0.42278312 25.578125 -0.34179688 C26.74408203 -0.27895508 26.74408203 -0.27895508 27.93359375 -0.21484375 C29.12275391 -0.18100586 29.12275391 -0.18100586 30.3359375 -0.14648438 C32.28596995 -0.08774846 34.23502687 0.00192971 36.18359375 0.09765625 C33.20462969 5.51395454 29.88637778 10.55992005 26.30859375 15.59765625 C25.80457031 16.31824219 25.30054688 17.03882813 24.78125 17.78125 C13.72871966 33.41308959 13.72871966 33.41308959 4.18359375 36.09765625 C1.24170117 36.46539282 -1.66565634 36.57519061 -4.62890625 36.59765625 C-5.72295776 36.60720337 -5.72295776 36.60720337 -6.83911133 36.61694336 C-11.31163552 36.51041793 -14.25079097 35.82232453 -17.81640625 33.09765625 C-20.16193882 29.85858746 -20.0995843 27.01415261 -19.81640625 23.09765625 C-18.56640625 20.4921875 -18.56640625 20.4921875 -16.81640625 17.91015625 C-15.86894531 16.50056641 -15.86894531 16.50056641 -14.90234375 15.0625 C-4.38393574 0.1121785 -4.38393574 0.1121785 0 0 Z " fill="#000000" transform="translate(228.81640625,337.90234375)"/>
<path d="M0 0 C2.72188399 4.08282598 2.61659943 7.2076956 2 12 C-0.69686452 20.62350691 -7.32989644 27.40877459 -14.91015625 31.9921875 C-22.29033546 35.55122719 -31.332301 36.94518589 -39.2421875 34.23046875 C-41.74239623 32.5377437 -42.86324017 30.6429918 -43.484375 27.72265625 C-43.91705374 19.92242015 -41.02134541 14.40732913 -36.375 8.375 C-27.77848768 -1.13557186 -11.60771296 -7.83520625 0 0 Z M-23 12 C-26.06272483 15.22827752 -27.49270927 17.56120611 -28 22 C-26.31026274 22.88556744 -26.31026274 22.88556744 -24 23 C-19.27426293 20.53867861 -16.42351781 17.75009491 -14 13 C-14.12245809 10.20438833 -14.12245809 10.20438833 -15 8 C-18.36336147 8 -20.36135124 10.04739992 -23 12 Z " fill="#000000" transform="translate(95,339)"/>
<path d="M0 0 C0.680625 -0.03738281 1.36125 -0.07476562 2.0625 -0.11328125 C4 0.3125 4 0.3125 7 4.3125 C1.06 10.2525 1.06 10.2525 -5 16.3125 C-7.475 15.3225 -7.475 15.3225 -10 14.3125 C-14.00634109 14.59364674 -17.66323587 14.96440673 -21 17.3125 C-21.70355707 18.6267411 -22.36572001 19.96345919 -23 21.3125 C-30.43875521 36.10362246 -30.43875521 36.10362246 -36.18066406 38.05273438 C-41.20211456 38.71439424 -46.03113797 38.15132313 -51 37.3125 C-49.22964857 32.00144571 -45.93318554 27.93814521 -42.57275391 23.55834961 C-39.92890967 20.06852585 -37.5404016 16.61147754 -35.42578125 12.7734375 C-29.35600203 2.09142087 -29.35600203 2.09142087 -24.90722656 0.62060547 C-19.8387676 -0.07470266 -15.02558314 0.53266813 -10 1.3125 C-6.50643454 1.3125 -3.50328883 0.12606532 0 0 Z " fill="#000000" transform="translate(141,336.6875)"/>
<path d="M0 0 C2.44933748 -0.13361419 4.80998647 -0.06568318 7.25805664 0.08349609 C8.51875977 0.12410156 8.51875977 0.12410156 9.80493164 0.16552734 C11.87374298 0.236055 13.94123057 0.34367242 16.00805664 0.45849609 C11.56006962 7.70996789 6.83509154 14.72350445 1.82421875 21.59667969 C-1.03806996 25.55134792 -3.65072987 29.52557284 -6.05834961 33.77490234 C-13.52052552 46.5445582 -13.52052552 46.5445582 -18.22338867 48.28369141 C-23.28529543 49.0741581 -28.00574716 48.4796213 -32.99194336 47.45849609 C-31.44856821 42.93983663 -28.96930238 39.26617915 -26.24194336 35.39599609 C-25.76748779 34.71424316 -25.29303223 34.03249023 -24.80419922 33.33007812 C-23.20540302 31.03580687 -21.59902198 28.74697234 -19.99194336 26.45849609 C-18.75862776 24.69694723 -17.52556211 22.93522334 -16.29272461 21.17333984 C-14.45200952 18.54289398 -12.6104005 15.91311978 -10.7644043 13.28637695 C-10.20140625 12.48466064 -9.6384082 11.68294434 -9.05834961 10.85693359 C-8.51807129 10.10202637 -7.97779297 9.34711914 -7.42114258 8.56933594 C-5.98541434 6.54186357 -5.98541434 6.54186357 -5.01977539 4.5546875 C-3.75439918 2.11375452 -2.74150348 0.63102629 0 0 Z " fill="#000000" transform="translate(283.991943359375,326.54150390625)"/>
<path d="M0 0 C4.62 0 9.24 0 14 0 C14.66 1.65 15.32 3.3 16 5 C17.93798263 2.22739701 17.93798263 2.22739701 19 0 C20.32 0 21.64 0 23 0 C23 3.96 23 7.92 23 12 C21.68 11.67 20.36 11.34 19 11 C16.81296615 11.37907282 16.81296615 11.37907282 15 12 C14.67 11.34 14.34 10.68 14 10 C13.67 10.66 13.34 11.32 13 12 C12.01 12 11.02 12 10 12 C10 9.03 10 6.06 10 3 C8.68 3 7.36 3 6 3 C6 5.97 6 8.94 6 12 C5.01 12 4.02 12 3 12 C3 9.03 3 6.06 3 3 C2.01 3 1.02 3 0 3 C0 2.01 0 1.02 0 0 Z " fill="#000000" transform="translate(428,324)"/>
</svg>
